<svg width="24" height="18" viewBox="0 0 24 18" fill="none" xmlns="http://www.w3.org/2000/svg">
<path fill-rule="evenodd" clip-rule="evenodd" d="M14.6349 3.45383C15.2812 3.92969 15.647 4.5973 15.7322 5.45668H20.1534C20.1321 4.15696 19.7841 3.01349 19.1094 2.02628C18.5437 1.19858 17.7883 0.523156 16.8432 0H22C23.1046 0 24 0.895431 24 2V16C24 17.1046 23.1046 18 22 18H19.5858C20.1565 17.0726 20.4452 15.9952 20.4517 14.7678C20.4446 13.8587 20.2777 13.0526 19.951 12.3494C19.6314 11.6463 19.1804 11.0355 18.598 10.517C18.0156 9.99858 17.3267 9.56179 16.5312 9.20668C15.7358 8.85156 14.8622 8.56747 13.9105 8.3544L11.9503 7.88565C11.4744 7.77912 11.027 7.65128 10.608 7.50213C10.1889 7.34588 9.8196 7.16477 9.5 6.95881C9.1804 6.74574 8.92827 6.49361 8.74361 6.20241C8.56605 5.91122 8.48438 5.57031 8.49858 5.17969C8.49858 4.71094 8.63352 4.2919 8.90341 3.92258C9.1804 3.55327 9.57812 3.26562 10.0966 3.05966C10.6151 2.84659 11.2507 2.74006 12.0036 2.74006C13.1115 2.74006 13.9886 2.97798 14.6349 3.45383ZM4.26511 18H2C0.89543 18 0 17.1046 0 16V2C0 0.89543 0.895431 0 2 0H7.18906C6.21321 0.523156 5.42457 1.19858 4.82315 2.02628C4.11293 3.01349 3.76136 4.16761 3.76847 5.48864C3.76136 7.10085 4.29048 8.38281 5.35582 9.33452C6.42116 10.2862 7.87358 10.9858 9.71307 11.4332L12.0888 12.0298C12.8842 12.2216 13.5554 12.4347 14.1023 12.669C14.6562 12.9034 15.0753 13.1875 15.3594 13.5213C15.6506 13.8551 15.7962 14.267 15.7962 14.7571C15.7962 15.2827 15.6364 15.7479 15.3168 16.1527C14.9972 16.5575 14.5462 16.8736 13.9638 17.1009C13.3885 17.3281 12.7102 17.4418 11.929 17.4418C11.1335 17.4418 10.4197 17.321 9.78764 17.0795C9.16264 16.831 8.66193 16.4652 8.28551 15.9822C7.91619 15.4922 7.70668 14.8814 7.65696 14.1499H3.19318C3.22757 15.6696 3.58488 16.953 4.26511 18Z" fill="#6366F1"/>
</svg>
